<svg width="100" height="100" viewBox="0 0 100 100" fill="none" xmlns="http://www.w3.org/2000/svg">
  <!-- Fingerprint pattern with detailed ridges -->
  <path d="M50 10C77.6142 10 100 32.3858 100 60C100 87.6142 77.6142 110 50 110C22.3858 110 0 87.6142 0 60C0 32.3858 22.3858 10 50 10Z" stroke="rgba(255,255,255,0.03)" stroke-width="0.5" fill="none"/>
  <path d="M50 15C74.8528 15 95 35.1472 95 60C95 84.8528 74.8528 105 50 105C25.1472 105 5 84.8528 5 60C5 35.1472 25.1472 15 50 15Z" stroke="rgba(255,255,255,0.025)" stroke-width="0.5" fill="none"/>
  <path d="M50 20C72.0914 20 90 37.9086 90 60C90 82.0914 72.0914 100 50 100C27.9086 100 10 82.0914 10 60C10 37.9086 27.9086 20 50 20Z" stroke="rgba(255,255,255,0.02)" stroke-width="0.5" fill="none"/>
  <path d="M50 25C69.3299 25 85 40.6701 85 60C85 79.3299 69.3299 95 50 95C30.6701 95 15 79.3299 15 60C15 40.6701 30.6701 25 50 25Z" stroke="rgba(255,255,255,0.02)" stroke-width="0.5" fill="none"/>
  <path d="M50 30C66.5685 30 80 43.4315 80 60C80 76.5685 66.5685 90 50 90C33.4315 90 20 76.5685 20 60C20 43.4315 33.4315 30 50 30Z" stroke="rgba(255,255,255,0.018)" stroke-width="0.5" fill="none"/>
  <path d="M50 35C63.8071 35 75 46.1929 75 60C75 73.8071 63.8071 85 50 85C36.1929 85 25 73.8071 25 60C25 46.1929 36.1929 35 50 35Z" stroke="rgba(255,255,255,0.015)" stroke-width="0.5" fill="none"/>
  <path d="M50 40C61.0457 40 70 48.9543 70 60C70 71.0457 61.0457 80 50 80C38.9543 80 30 71.0457 30 60C30 48.9543 38.9543 40 50 40Z" stroke="rgba(255,255,255,0.012)" stroke-width="0.5" fill="none"/>
  <path d="M50 45C58.2843 45 65 51.7157 65 60C65 68.2843 58.2843 75 50 75C41.7157 75 35 68.2843 35 60C35 51.7157 41.7157 45 50 45Z" stroke="rgba(255,255,255,0.01)" stroke-width="0.5" fill="none"/>
  
  <!-- Characteristic fingerprint lines/breaks -->
  <path d="M30 45C35 50, 40 55, 42 62" stroke="rgba(255,255,255,0.015)" stroke-width="0.3" fill="none"/>
  <path d="M70 45C65 50, 60 55, 58 62" stroke="rgba(255,255,255,0.015)" stroke-width="0.3" fill="none"/>
  <path d="M45 30C48 35, 50 40, 52 45" stroke="rgba(255,255,255,0.012)" stroke-width="0.3" fill="none"/>
  <path d="M55 30C52 35, 50 40, 48 45" stroke="rgba(255,255,255,0.012)" stroke-width="0.3" fill="none"/>
</svg>