<svg width="1440" height="1440" viewBox="0 0 1440 1440" fill="none" xmlns="http://www.w3.org/2000/svg">
<mask id="mask0_7657_37" style="mask-type:alpha" maskUnits="userSpaceOnUse" x="0" y="0" width="1440" height="1440">
<rect width="1440" height="1440" fill="#D9D9D9"/>
</mask>
<g mask="url(#mask0_7657_37)">
<path d="M718.5 276.75C823.28 276.75 922.725 299.5 1016.84 345C1110.95 390.5 1189.5 456 1252.5 541.5C1255.5 546 1256.25 550.25 1254.75 554.25C1253.25 558.25 1250.5 562 1246.5 565.5C1243.5 568 1239.4 568.93 1234.2 568.29C1228.99 567.65 1225.09 564.72 1222.5 559.5C1165 479 1091.77 417.5 1002.81 375C913.85 332.5 819.08 310.75 718.5 309.75C619.5 309.75 526.25 331.375 438.75 374.625C351.25 417.875 278.5 479.5 220.5 559.5C215.5 565 210.75 567.875 206.25 568.125C201.75 568.375 197.75 566.75 194.25 563.25C191.25 561.25 189.5 558.125 189 553.875C188.5 549.625 189.5 546.5 192 544.5C254 460 331.17 394.25 423.51 347.25C515.84 300.25 614.17 276.75 718.5 276.75ZM718.575 417.75C851.025 417.75 965.375 462.53 1061.63 552.09C1157.88 641.65 1206 751.12 1206 880.5C1206 926.36 1189.13 965.2 1155.38 997.02C1121.62 1028.84 1080.99 1044.75 1033.5 1044.75C986 1044.75 945.125 1028.84 910.875 997.02C876.625 965.2 859.5 926.36 859.5 880.5C859.5 843 846.01 811.625 819.03 786.375C792.06 761.125 759.55 748.5 721.5 748.5C682.63 748.5 649.415 760.99 621.855 785.97C594.285 810.95 580.5 842.46 580.5 880.5C580.5 981.99 611 1066.87 672 1135.13C733 1203.38 809.5 1250.75 901.5 1277.25C907.05 1279.81 910.81 1282.62 912.78 1285.68C914.76 1288.75 915.75 1292.54 915.75 1297.04C913.75 1302.35 910.75 1306.5 906.75 1309.5C902.75 1312.5 898 1312.75 892.5 1310.25C794 1284.75 711.875 1233.85 646.125 1157.55C580.375 1081.25 547.5 988.9 547.5 880.5C547.5 834 564.375 794.875 598.125 763.125C631.875 731.375 673.035 715.5 721.605 715.5C768.675 715.5 808.925 731.375 842.355 763.125C875.785 794.875 892.5 834 892.5 880.5C892.5 918.04 906.595 949.175 934.785 973.905C962.985 998.635 995.735 1011 1033.04 1011C1071.85 1011 1104.63 998.625 1131.38 973.875C1158.13 949.125 1171.5 918 1171.5 880.5C1171.5 759.96 1127.23 658.575 1038.68 576.345C950.115 494.115 843.74 453 719.55 453C594.35 453 487.625 494.015 399.375 576.045C311.125 658.065 267 759.3 267 879.75C267 904.75 270.25 935.75 276.75 972.75C283.25 1009.75 294.5 1052.75 310.5 1101.75C328 1152.75 352.25 1208.25 383.25 1268.25C387.5 1275.75 387.75 1282.375 384 1288.125C380.25 1293.875 374.75 1297.04 367.5 1297.62C360.25 1298.21 353.75 1295.5 348 1289.5C344.25 1284.25 342.5 1278.09 342.75 1271.02C342.99 1263.95 345.25 1256.25 349.5 1247.91C317.01 1183.91 292.375 1125.62 275.625 1073.06C258.875 1020.5 247.75 971.375 242.25 925.685C236.75 879.985 234 840.25 234 796.5C234 678.99 272.75 569.5 350.25 468C427.75 366.5 535.5 316.25 673.5 307.25C775.5 299.75 877.875 316.625 980.625 357.875C1083.38 399.125 1174.5 462.125 1254 546.875C1314 606 1355.5 677.625 1378.5 761.75C1401.5 845.875 1413 930.99 1413 1017.09C1413 1072.69 1406.5 1129.79 1393.5 1188.39C1380.5 1246.99 1362 1302.5 1338 1355C1333 1365.5 1325.75 1370.875 1316.25 1370.125C1306.75 1369.375 1299.5 1364.25 1294.5 1354.75C1290 1346.25 1289.5 1336.625 1293 1325.875C1295 1318.875 1307.5 1293.38 1331.5 1249.38C1355.5 1205.38 1371.38 1158.63 1379.13 1109.13C1386.88 1059.63 1390.75 1009.4 1390.75 958.425C1390.75 877.425 1381.25 798.75 1362.25 722.4C1343.25 646.05 1313.5 575.75 1273 511.5C1213.5 421 1138.88 352.5 1049.13 306C959.375 259.5 862.95 236.25 759.85 236.25C659.45 236.25 565.125 258.75 476.875 303.75C388.625 348.75 313.5 414.75 251.5 501.75C205 569.25 175 644.5 161.5 728C148 811.5 146.5 894.5 157 976.5C165.5 1044.5 182.5 1111 208 1176C233.5 1241 267 1301.5 308.5 1357.5C314 1365 315.5 1372.625 313 1380.375C310.5 1388.125 305.25 1394.13 297.25 1398.38C289.25 1402.63 281.25 1402.38 273.25 1397.63C267.75 1394.13 264.25 1388.88 262.75 1381.88C225.25 1319.38 195.25 1253.63 172.75 1184.63C150.25 1115.63 133.5 1044.88 122.5 972.375C113 907.375 113.5 841.5 124 775.725C134.5 709.95 154.5 646.975 183 587.125C238 465.125 321.375 368.625 433.125 297.625C544.875 226.625 669.99 190.625 808.45 189.625C925.7 189.625 1036.13 213.5 1139.75 261.25C1243.38 309 1334.75 379.25 1414 471.75C1463 531.75 1499.25 603.38 1522.75 686.63C1546.25 769.88 1557.5 854.74 1557.5 941.21C1557.5 998.96 1551 1057.84 1538 1117.84C1525 1177.84 1505.5 1234.59 1479.5 1288.09C1466 1314.09 1449.5 1336.34 1430 1354.84C1410.5 1373.34 1387.75 1382.59 1361.75 1382.59C1336.75 1382.59 1314.5 1373.34 1295 1354.84C1275.5 1336.34 1259.5 1314.09 1247 1288.09C1222 1234.59 1202.5 1177.84 1188.5 1117.84C1174.5 1057.84 1167.5 998.96 1167.5 941.21C1167.5 854.74 1178.75 769.88 1201.25 686.63C1223.75 603.38 1259 531.75 1307 471.75C1377.5 384.25 1467.88 326.25 1578.13 297.75C1688.38 269.25 1802.25 272.75 1919.75 308.25C1990.25 331.25 2057.5 366.75 2121.5 414.75C2185.5 462.75 2244.5 521.75 2298.5 591.75C2324 621.75 2340.25 654.75 2347.25 690.75C2354.25 726.75 2351.75 761.74 2339.75 795.74C2330.25 824.74 2314.25 849.24 2291.75 869.24C2269.25 889.24 2242.75 901.24 2212.25 905.24C2203.25 906.24 2194.25 905.49 2185.25 902.99C2176.25 900.49 2168.5 895.74 2162 888.74C2157 883.24 2154.5 876.49 2154.5 868.49C2154.5 860.49 2157 853.74 2162 848.24C2179.5 827.74 2190.38 803.5 2194.63 775.5C2198.88 747.5 2196.25 719.5 2186.75 691.5C2156.25 594 2097.88 510 2011.63 439.5C1925.38 369 1824.88 338.25 1710.13 347.25C1595.38 356.25 1492.13 397.75 1400.38 471.75C1328.88 529.25 1270.38 597.25 1224.88 675.75C1179.38 754.25 1148.13 838.74 1131.13 928.24C1114.13 1017.74 1112.13 1106.74 1125.13 1195.24C1133.13 1249.24 1147.38 1301.49 1167.88 1351.99C1188.38 1402.49 1215.13 1446.74 1248.13 1484.74C1256.63 1495.24 1260.63 1506.24 1260.13 1517.74C1259.63 1529.24 1254.38 1539.24 1244.38 1547.74C1234.38 1556.24 1223.13 1559.74 1210.63 1558.24C1198.13 1556.74 1188.38 1549.49 1181.38 1536.49C1149.38 1494.49 1121.63 1447.74 1098.13 1395.24C1074.63 1342.74 1057.38 1287.74 1046.38 1230.24C1029.88 1141.74 1032.38 1053.24 1053.88 964.74C1075.38 876.24 1113.38 792.99 1167.88 714.99C1242.88 608.49 1339.63 531.49 1458.13 483.99C1576.63 436.49 1698.88 425.74 1824.88 451.74C1950.88 477.74 2066.63 537.49 2172.13 630.99C2277.63 724.49 2361.38 843.24 2423.38 986.24C2442.88 1031.24 2455.63 1079.24 2461.63 1130.24C2467.63 1181.24 2465.88 1230.74 2456.38 1278.74C2449.88 1312.74 2437.38 1344.24 2418.88 1372.24C2400.38 1400.24 2376.88 1423.24 2348.38 1440.24C2333.88 1449.24 2318.13 1453.49 2301.13 1452.99C2284.13 1452.49 2268.38 1446.99 2253.88 1436.49C2239.38 1425.99 2228.38 1411.74 2220.88 1393.74C2213.38 1375.74 2211.13 1356.74 2214.13 1336.74C2216.13 1321.74 2221.88 1308.49 2231.38 1296.99C2240.88 1285.49 2253.38 1276.49 2268.88 1269.99C2275.88 1267.49 2283.13 1266.74 2290.63 1267.74C2298.13 1268.74 2304.88 1271.49 2310.88 1275.99C2315.88 1279.99 2318.88 1284.99 2319.88 1290.99C2320.88 1296.99 2319.38 1302.24 2315.38 1306.74C2311.38 1311.24 2306.13 1314.49 2299.63 1316.49C2293.13 1318.49 2286.88 1318.24 2280.88 1315.74C2280.38 1315.49 2279.88 1315.49 2279.38 1315.74C2278.88 1315.99 2278.63 1316.49 2278.63 1317.24C2278.63 1317.99 2279.13 1318.74 2280.13 1319.49C2281.13 1320.24 2282.38 1320.74 2283.88 1320.99C2286.88 1321.49 2289.88 1321.24 2292.88 1320.24C2295.88 1319.24 2298.38 1317.49 2300.38 1314.99C2302.38 1312.49 2303.63 1309.49 2304.13 1305.99C2304.63 1302.49 2304.13 1298.99 2302.63 1295.49C2299.63 1288.49 2294.13 1282.99 2286.13 1278.99C2278.13 1274.99 2269.38 1272.99 2259.88 1272.99C2241.88 1272.99 2225.63 1279.49 2211.13 1292.49C2196.63 1305.49 2186.13 1322.24 2179.63 1342.74C2175.63 1355.74 2174.63 1369.24 2176.63 1383.24C2178.63 1397.24 2183.63 1410.24 2191.63 1422.24C2199.63 1434.24 2210.13 1444.24 2223.13 1452.24C2236.13 1460.24 2250.38 1465.24 2265.88 1467.24C2281.38 1469.24 2296.88 1467.74 2312.38 1462.74C2327.88 1457.74 2341.88 1449.24 2354.38 1437.24C2381.88 1415.74 2404.13 1388.24 2421.13 1354.74C2438.13 1321.24 2449.38 1285.24 2454.88 1246.74C2463.38 1182.74 2464.63 1117.24 2458.63 1050.24C2452.63 983.24 2440.13 917.74 2421.13 853.74C2363.63 693.74 2271.88 558.49 2145.88 448.99C2019.88 339.49 1874.13 269.99 1708.63 240.49C1543.13 210.99 1378.38 222.49 1214.38 274.99C1050.38 327.49 907.63 415.49 786.13 538.99C703.63 626.49 642.13 725.24 601.63 835.24C561.13 945.24 543.13 1057.74 547.63 1172.74C550.13 1229.74 558.88 1285.49 573.88 1339.99C588.88 1394.49 610.63 1445.74 639.13 1493.74C646.13 1505.74 648.63 1518.24 646.63 1531.24C644.63 1544.24 638.38 1555.74 628.88 1565.74C619.38 1575.74 607.63 1582.24 593.63 1585.24C579.63 1588.24 566.13 1585.74 553.13 1577.74C537.13 1567.74 525.88 1553.49 519.38 1534.99C512.88 1516.49 512.38 1497.49 517.88 1477.99C494.38 1422.99 476.13 1365.74 463.13 1306.24C450.13 1246.74 442.88 1185.74 441.38 1123.24C438.88 1001.24 458.38 880.24 499.88 760.24C541.38 640.24 602.88 528.49 684.38 425.99C805.88 278.49 962.13 173.24 1153.13 109.24C1344.13 45.24 1538.38 33.74 1735.88 74.74C1933.38 115.74 2117.13 202.24 2287.13 334.24C2457.13 466.24 2598.88 638.24 2712.38 850.24C2765.88 956.24 2804.13 1068.24 2827.13 1186.24C2850.13 1304.24 2857.88 1422.74 2850.38 1541.74C2848.38 1570.74 2841.88 1598.24 2830.88 1624.24C2819.88 1650.24 2804.63 1673.74 2785.13 1694.74C2765.63 1715.74 2742.63 1733.24 2716.13 1747.24C2689.63 1761.24 2661.63 1770.74 2632.13 1775.74C2602.63 1780.74 2573.13 1780.24 2543.63 1774.24C2514.13 1768.24 2485.88 1756.74 2458.88 1739.74C2431.88 1722.74 2407.63 1700.74 2386.13 1673.74C2364.63 1646.74 2347.38 1615.74 2334.38 1580.74L2322.38 1542.74C2320.88 1538.24 2320.88 1533.49 2322.38 1528.49C2323.88 1523.49 2326.88 1519.24 2331.38 1515.74C2335.88 1512.24 2341.13 1510.24 2347.13 1509.74C2353.13 1509.24 2358.88 1510.49 2364.38 1513.49C2369.88 1516.49 2374.13 1520.99 2377.13 1526.99C2380.13 1532.99 2381.38 1539.24 2380.88 1545.74L2392.88 1583.74C2404.38 1614.24 2420.13 1641.74 2440.13 1666.24C2460.13 1690.74 2483.63 1711.24 2510.63 1727.74C2537.63 1744.24 2566.88 1755.24 2598.38 1760.74C2629.88 1766.24 2661.13 1765.24 2692.13 1757.74C2723.13 1750.24 2752.13 1736.24 2779.13 1715.74C2806.13 1695.24 2829.88 1669.24 2850.38 1637.74C2870.88 1606.24 2886.88 1571.24 2898.38 1532.74C2909.88 1494.24 2916.38 1454.74 2917.88 1414.24C2924.88 1288.24 2916.88 1163.24 2893.88 1039.24C2870.88 915.24 2832.88 796.24 2779.88 682.24C2658.38 450.24 2498.88 266.24 2301.38 130.74C2103.88 -4.76001 1884.88 -95.2601 1644.38 -140.26C1403.88 -185.26 1162.88 -176.76 921.38 -115.26C679.88 -53.7601 456.88 61.7399 253.38 215.74C148.88 316.24 65.13 430.99 2.13 559.99C-60.87 688.99 -102.37 823.74 -122.37 963.24C-142.37 1102.74 -140.62 1242.24 -117.12 1381.74C-99.62 1485.74 -70.87 1586.49 -30.87 1683.99C9.13 1781.49 59.88 1872.74 121.38 1957.74C156.38 2006.74 194.88 2052.24 236.88 2094.24C278.88 2136.24 324.88 2173.74 374.88 2206.74C424.88 2239.74 478.38 2267.24 535.38 2289.24C592.38 2311.24 651.38 2326.74 712.38 2335.74C773.38 2344.74 834.88 2346.24 896.88 2340.24C958.88 2334.24 1019.88 2320.74 1079.88 2299.74C1139.88 2278.74 1197.38 2250.24 1252.38 2214.24C1307.38 2178.24 1358.88 2135.24 1406.88 2085.24C1454.88 2035.24 1498.38 1979.24 1537.38 1917.24C1556.38 1887.24 1572.88 1855.74 1586.88 1822.74C1600.88 1789.74 1612.38 1755.74 1621.38 1720.74C1621.88 1718.74 1622.88 1716.99 1624.38 1715.49C1625.88 1713.99 1627.88 1713.24 1630.38 1713.24C1632.88 1713.24 1635.13 1714.24 1637.13 1716.24C1639.13 1718.24 1640.38 1720.74 1640.88 1723.74C1641.38 1726.74 1640.88 1729.74 1639.38 1732.74C1637.88 1735.74 1635.38 1738.24 1631.88 1740.24C1624.88 1773.24 1613.88 1805.24 1598.88 1836.24C1583.88 1867.24 1565.38 1896.74 1543.38 1924.74C1499.38 1980.74 1451.38 2031.24 1399.38 2076.24C1347.38 2121.24 1292.38 2160.24 1234.38 2193.24C1176.38 2226.24 1116.88 2252.74 1055.88 2272.74C994.88 2292.74 933.13 2305.74 870.63 2311.74C808.13 2317.74 745.88 2316.24 683.88 2307.24C621.88 2298.24 561.38 2281.74 502.38 2257.74C443.38 2233.74 387.38 2202.74 334.38 2164.74C281.38 2126.74 232.88 2082.24 189.88 2031.24C146.88 1980.24 109.88 1923.74 79.88 1861.74C49.88 1799.74 27.38 1733.24 13.38 1662.24C-0.62 1591.24 -12.12 1518.24 -21.12 1443.24C-30.12 1368.24 -35.87 1292.74 -38.37 1216.74C-42.37 1067.74 -31.62 919.24 -5.62 771.24C20.38 623.24 62.13 480.24 119.63 342.24C177.13 204.24 248.38 75.7399 332.38 -43.2601C416.38 -162.26 513.13 -270.26 622.63 -367.26C732.13 -464.26 852.38 -549.01 983.38 -621.51C1114.38 -694.01 1254.88 -753.01 1404.88 -798.51C1554.88 -844.01 1712.88 -874.76 1878.88 -890.76C2044.88 -906.76 2217.63 -907.76 2397.13 -893.76C2485.13 -885.76 2571.63 -871.51 2656.63 -851.01C2741.63 -830.51 2824.38 -803.76 2904.88 -771.26C2985.38 -738.76 3062.88 -700.51 3137.38 -656.51C3211.88 -612.51 3282.38 -563.01 3348.88 -508.01C3415.38 -453.01 3476.88 -392.76 3532.38 -327.26C3587.88 -261.76 3637.13 -191.76 3679.13 -117.26C3721.13 -42.76 3755.63 35.24 3782.63 117.74C3809.63 200.24 3828.88 284.24 3840.38 369.74C3851.88 455.24 3855.38 541.24 3850.88 627.74C3846.38 714.24 3833.88 799.74 3813.38 884.24C3792.88 968.74 3764.13 1051.24 3727.13 1131.74C3690.13 1212.24 3644.88 1289.24 3591.38 1362.74C3537.88 1436.24 3476.88 1505.24 3408.38 1569.74C3339.88 1634.24 3265.38 1692.74 3184.88 1744.24C3104.38 1795.74 3018.63 1840.24 2927.63 1877.74C2836.63 1915.24 2741.38 1944.74 2641.88 1966.24C2542.38 1987.74 2440.38 2000.74 2335.88 2005.24C2231.38 2009.74 2125.88 2005.24 2019.38 1991.74C1912.88 1978.24 1807.13 1955.24 1702.13 1922.74C1597.13 1890.24 1494.63 1848.24 1395.63 1796.74C1296.63 1745.24 1202.88 1684.74 1114.38 1615.24C1025.88 1545.74 944.38 1468.24 869.88 1382.74C795.38 1297.24 728.63 1204.24 669.63 1103.74C610.63 1003.24 560.38 895.74 519.88 781.24C479.38 666.74 449.63 546.74 430.63 421.24C411.63 295.74 404.38 167.24 409.88 36.74C415.38 -93.76 433.13 -222.51 462.63 -349.01C492.13 -475.51 532.88 -598.51 584.88 -718.01C636.88 -837.51 699.38 -952.01 772.38 -1061.51C845.38 -1171.01 927.63 -1274.26 1019.13 -1370.76C1110.63 -1467.26 1211.13 -1556.01 1320.63 -1636.01C1430.13 -1716.01 1547.38 -1787.01 1672.38 -1849.01C1797.38 -1911.01 1929.13 -1963.51 2067.63 -2006.51C2206.13 -2049.51 2349.88 -2082.76 2498.88 -2106.26C2647.88 -2129.76 2801.63 -2143.26 2959.13 -2146.76C3116.63 -2150.26 3276.88 -2143.76 3439.88 -2127.26C3602.88 -2110.76 3767.63 -2084.01 3933.13 -2047.01C4098.63 -2010.01 4264.63 -1962.51 4430.13 -1904.51C4595.63 -1846.51 4760.38 -1777.76 4924.38 -1698.26C5088.38 -1618.76 5250.38 -1528.26 5410.38 -1426.76C5570.38 -1325.26 5727.13 -1212.51 5880.63 -1088.51C6034.13 -964.51 6182.88 -829.01 6326.88 -682.01C6470.88 -535.01 6608.63 -376.26 6739.13 -206.26C6869.63 -36.26 6992.63 143.24 7107.13 332.24C7221.63 521.24 7327.38 718.74 7424.38 924.74C7521.38 1130.74 7608.88 1344.24 7686.88 1565.24C7764.88 1786.24 7832.63 2013.24 7890.13 2246.24C7947.63 2479.24 7994.38 2716.74 8030.38 2958.74C8066.38 3200.74 8091.63 3445.74 8106.13 3693.74C8120.63 3941.74 8124.38 4191.24 8117.38 4442.24C8110.38 4693.24 8092.63 4944.24 8064.13 5194.74C8035.63 5445.24 7996.38 5693.74 7946.38 5940.24C7896.38 6186.74 7835.63 6430.24 7764.13 6670.74C7692.63 6911.24 7610.38 7147.74 7517.38 7379.24C7424.38 7610.74 7320.63 7836.24 7206.13 8055.74C7091.63 8275.24 6966.38 8487.24 6830.38 8691.74C6694.38 8896.24 6547.63 9091.74 6390.13 9278.24C6232.63 9464.74 6064.38 9641.74 5885.38 9809.24C5706.38 9976.74 5516.63 10133.2 5316.13 10279.2C5115.63 10425.2 4904.38 10559.7 4682.38 10682.7C4460.38 10805.7 4227.63 10916.7 3984.13 11015.7C3740.63 11114.7 3486.38 11200.7 3221.38 11273.7C2956.38 11346.7 2680.63 11405.7 2394.13 11450.7C2107.63 11495.7 1810.38 11525.7 1502.38 11540.7C1194.38 11555.7 875.63 11554.7 546.13 11537.7C216.63 11520.7 -123.37 11486.7 -473.87 11435.7C-824.37 11384.7 -1184.37 11316.2 -1553.87 11230.2C-1923.37 11144.2 -2301.37 11040.2 -2687.87 10918.2C-3074.37 10796.2 -3468.37 10655.7 -3869.87 10497.7C-4271.37 10339.7 -4679.37 10163.2 -5093.87 9968.24C-5508.37 9773.24 -5928.37 9559.24 -6353.87 9326.24C-6779.37 9093.24 -7209.37 8840.74 -7643.87 8569.24C-8078.37 8297.74 -8516.37 8007.24 -8957.87 7697.74C-9399.37 7388.24 -9843.37 7059.24 -10289.9 6710.74C-10736.4 6362.24 -11184.9 5993.74 -11635.4 5605.24C-12085.9 5216.74 -12538.4 4808.24 -12992.9 4379.74C-13447.4 3951.24 -13903.4 3502.24 -14360.9 3032.74C-14818.4 2563.24 -15276.9 2072.74 -15736.4 1561.24C-16195.9 1049.74 -16656.4 517.24 -17117.9 -36.26C-17579.4 -589.76 -18041.4 -1164.26 -18503.9 -1759.76C-18966.4 -2355.26 -19429.4 -2971.26 -19892.9 -3607.76C-20356.4 -4244.26 -20820.4 -4900.76 -21284.9 -5577.26C-21749.4 -6253.76 -22214.4 -6950.26 -22679.9 -7666.76C-23145.4 -8383.26 -23611.4 -9119.26 -24077.9 -9874.76C-24544.4 -10630.3 -25011.4 -11405.3 -25478.9 -12199.8C-25946.4 -12994.3 -26414.4 -13808.3 -26882.9 -14641.8C-27351.4 -15475.3 -27820.4 -16328.3 -28289.9 -17200.8C-28759.4 -18073.3 -29229.4 -18965.3 -29699.9 -19876.8C-30170.4 -20788.3 -30641.4 -21719.3 -31112.9 -22669.8C-31584.4 -23620.3 -32056.4 -24590.3 -32528.9 -25579.8C-33001.4 -26569.3 -33474.4 -27578.3 -33947.9 -28606.8C-34421.4 -29635.3 -34895.4 -30683.3 -35369.9 -31750.8C-35844.4 -32818.3 -36319.4 -33905.3 -36794.9 -35011.8C-37270.4 -36118.3 -37746.4 -37244.3 -38222.9 -38389.8C-38699.4 -39535.3 -39176.4 -40700.3 -39653.9 -41884.8C-40131.4 -43069.3 -40609.4 -44273.3 -41087.9 -45496.8" stroke="white" stroke-opacity="0.04" stroke-width="2"/>
</g>
</svg>